<?xml version="1.0" encoding="iso-8859-1"?>
<!-- Generator: Adobe Illustrator 19.1.0, SVG Export Plug-In . SVG Version: 6.00 Build 0)  -->
<svg xmlns="http://www.w3.org/2000/svg" xmlns:xlink="http://www.w3.org/1999/xlink" version="1.1" id="Capa_1" x="0px" y="0px" viewBox="0 0 450 450" style="enable-background:new 0 0 450 450;" xml:space="preserve" width="512px" height="512px">
<g>
	<path d="M449.812,241.864c-0.125-0.61-0.314-1.197-0.551-1.758c-0.237-0.561-0.519-1.095-0.855-1.594   c-0.337-0.499-0.724-0.97-1.148-1.394c-0.424-0.424-0.884-0.8-1.383-1.137c-0.499-0.337-1.033-0.63-1.594-0.867   s-1.148-0.426-1.758-0.551s-1.251-0.188-1.898-0.188H412.5V65.625H75v131.25H0v187.5h262.5v-56.25H375v28.125   c0,0.647,0.074,1.276,0.199,1.887c0.125,0.61,0.302,1.209,0.539,1.77s0.53,1.083,0.867,1.582s0.724,0.97,1.148,1.395   c0.424,0.424,0.884,0.811,1.383,1.148s1.033,0.618,1.594,0.855s1.148,0.426,1.758,0.551s1.24,0.188,1.887,0.188h56.25   c0.647,0,1.288-0.063,1.898-0.188s1.197-0.314,1.758-0.551s1.095-0.518,1.594-0.855s0.959-0.724,1.383-1.148   s0.811-0.896,1.148-1.395s0.618-1.021,0.855-1.582s0.426-1.159,0.551-1.77c0.125-0.61,0.188-1.24,0.188-1.887v-112.5   C450,243.104,449.937,242.475,449.812,241.864z M225,365.626H18.75v-150H75h18.75H225v93.75v18.75V365.626z M236.25,290.626   c0-4.142,3.358-7.5,7.5-7.5s7.5,3.358,7.5,7.5s-3.358,7.5-7.5,7.5S236.25,294.768,236.25,290.626z M375,309.376H262.5v-3.75   v-108.75h-16.875h-3.75h-70.312h-3.75H97.5h-3.75v-112.5h300v150H390h-5.625c-0.647,0-1.276,0.063-1.887,0.188   s-1.197,0.314-1.758,0.551s-1.095,0.53-1.594,0.867s-0.959,0.713-1.383,1.137c-0.424,0.424-0.812,0.896-1.148,1.395   c-0.337,0.499-0.63,1.033-0.867,1.594c-0.237,0.561-0.414,1.148-0.539,1.758c-0.125,0.61-0.199,1.24-0.199,1.887v61.875V309.376   L375,309.376z M440.628,346.876h-3.753h-48.75h-3.747v-18.75v-18.75v-3.75v-52.5H390h3.75h18.75h28.128V346.876z" fill="#373746"/>
</g>
<g>
</g>
<g>
</g>
<g>
</g>
<g>
</g>
<g>
</g>
<g>
</g>
<g>
</g>
<g>
</g>
<g>
</g>
<g>
</g>
<g>
</g>
<g>
</g>
<g>
</g>
<g>
</g>
<g>
</g>
</svg>
